# xmcd
#
# Track frame offsets: 
#        182
#        28645
#        59545
#        85945
#        118795
#        144370
#        170620
#        201370
#        225220
#
# Disc length: 3284 seconds
#
# Revision: 12
# Processed by: cddbd v1.5.2PL0 Copyright (c) Steve Scherf et al.
# Submitted via: ExactAudioCopy v1.0b3
#
DISCID=750cd209
DTITLE=Rubinstein, Arthur - Plays Chopin [886976871222] [Disc 6]
DYEAR=1965
DGENRE=Classical
TTITLE0=2 Nocturnes Op.37 - No.1 in G minor
TTITLE1=2 Nocturnes Op.37 - No.2 in G major
TTITLE2=2 Nocturnes Op.48 - No.1 in C minor
TTITLE3=2 Nocturnes Op.48 - No.2 in F sharp minor
TTITLE4=2 Nocturnes Op.55 - No.1 in F minor
TTITLE5=2 Nocturnes Op.55 - No.2 in E flat major
TTITLE6=2 Nocturnes Op.62 - No.1 in B major
TTITLE7=2 Nocturnes Op.62 - No.2 in E major
TTITLE8=Nocturne in E minor op. posth. 72 - No.1
EXTD=Ripped and uploaded by *Berthold de Lacu* \n\nFor more visit:\nht
EXTD=tp://domibus-eternis.blogspot.com/
EXTT0=
EXTT1=
EXTT2=
EXTT3=
EXTT4=
EXTT5=
EXTT6=
EXTT7=
EXTT8=
PLAYORDER=
